<svg id="Capa_1" data-name="Capa 1" xmlns="http://www.w3.org/2000/svg" viewBox="0 0 550 131"><defs><style>.cls-1,.cls-2{fill:none;}.cls-1,.cls-2,.cls-4,.cls-6{stroke:#fff;stroke-miterlimit:10;}.cls-1{stroke-width:2px;}.cls-10,.cls-3,.cls-4,.cls-5,.cls-6,.cls-7,.cls-8{fill:#fff;}.cls-5{font-size:29.91px;}.cls-10,.cls-5,.cls-7,.cls-8{font-family:CambriaMath, Cambria Math;}.cls-6{stroke-width:3px;}.cls-7,.cls-8{font-size:31.53px;}.cls-8{letter-spacing:0.1em;}.cls-9{letter-spacing:0.09em;}.cls-10{font-size:53.6px;letter-spacing:0.1em;}.cls-11{letter-spacing:0.09em;}.cls-12{letter-spacing:0.1em;}</style></defs><title>Mesa de trabajo 1</title><rect class="cls-1" x="162.24" y="5.56" width="24.76" height="43.55"/><line class="cls-1" x1="186.99" y1="16.2" x2="162.24" y2="16.2"/><line class="cls-1" x1="164.63" y1="23.91" x2="180.86" y2="23.91"/><line class="cls-1" x1="164.63" y1="39.31" x2="180.86" y2="39.31"/><line class="cls-1" x1="164.63" y1="31.61" x2="180.86" y2="31.61"/><line class="cls-1" x1="180.86" y1="10.88" x2="169.41" y2="10.88"/><rect class="cls-1" x="108.77" y="5.56" width="24.76" height="59.93"/><line class="cls-1" x1="111.27" y1="31.61" x2="127.49" y2="31.61"/><line class="cls-1" x1="111.27" y1="23.91" x2="127.49" y2="23.91"/><line class="cls-1" x1="108.77" y1="16.2" x2="133.53" y2="16.2"/><line class="cls-1" x1="133.53" y1="39.31" x2="108.77" y2="39.31"/><line class="cls-1" x1="111.27" y1="56.81" x2="127.49" y2="56.81"/><line class="cls-1" x1="111.27" y1="49.11" x2="127.49" y2="49.11"/><line class="cls-1" x1="114.28" y1="10.88" x2="128.12" y2="10.88"/><rect class="cls-1" x="140" y="70.43" width="24.76" height="26.05"/><line class="cls-1" x1="164.81" y1="80.51" x2="139.9" y2="80.51"/><line class="cls-1" x1="145.1" y1="75.75" x2="159.45" y2="75.75"/><line class="cls-1" x1="142.39" y1="88.77" x2="158.62" y2="88.77"/><line class="cls-1" x1="192" y1="31.61" x2="187.13" y2="31.61"/><line class="cls-1" x1="191.97" y1="77.63" x2="192" y2="31.61"/><line class="cls-1" x1="191.97" y1="77.63" x2="165.3" y2="77.07"/><line class="cls-1" x1="165.03" y1="77.01" x2="167.13" y2="80.24"/><line class="cls-1" x1="164.97" y1="77.17" x2="167.74" y2="75.02"/><line class="cls-1" x1="162.19" y1="12.81" x2="160.08" y2="9.58"/><line class="cls-1" x1="162.24" y1="12.65" x2="159.47" y2="14.8"/><line class="cls-1" x1="133.58" y1="31.54" x2="135.68" y2="34.78"/><line class="cls-1" x1="133.53" y1="31.71" x2="136.3" y2="29.56"/><line class="cls-1" x1="150.51" y1="70.35" x2="150.51" y2="31.61"/><line class="cls-1" x1="134.05" y1="31.61" x2="150.51" y2="31.61"/><line class="cls-1" x1="133.53" y1="12.1" x2="162.24" y2="12.28"/><path class="cls-2" d="M11.17,29.67V72.43s.55,2.31,2.2,2.31h4.4v1.73h-6.6L1.84,87.92a2.5,2.5,0,0,0-.56,1.58v1.28a1.56,1.56,0,0,0,.9,1.43,8.74,8.74,0,0,0,1.3.44c2.2.57,91.25,0,91.25,0s2.2-1.16,1.1-4.05S85.39,76.47,85.39,76.47h-6V74.74h4.4s2.2,0,2.2-1.74V29.67s.55-2.88-3.85-2.88H14.47S11.17,26.79,11.17,29.67Z"/><polygon class="cls-3" points="7.88 83.98 89.23 83.98 84.29 77.63 12.82 78.2 7.88 83.98"/><polygon class="cls-3" points="43.06 85.14 40.86 89.76 56.25 89.76 54.6 85.14 43.06 85.14"/><rect class="cls-1" x="14.47" y="29.67" width="68.71" height="41.02"/><rect class="cls-2" x="22.17" y="74.74" width="52.77" height="1.73"/><polygon class="cls-3" points="37.56 51.63 41.96 55.67 39.76 59.14 33.16 52.78 33.16 50.47 39.76 44.12 41.96 47.01 37.56 51.63"/><polygon class="cls-3" points="48.55 41.23 43.06 63.18 47.46 63.18 53.5 41.23 48.55 41.23"/><polygon class="cls-3" points="56.25 47.01 61.2 51.63 56.8 55.67 59 58.56 65.6 52.78 65.6 50.47 58.45 44.12 56.25 47.01"/><path id="nube" class="cls-4" d="M224.41,72.83c-4.87-1-15.1-9.73-16.07-18.43s1.95-14.34,2.92-15.36,4.38-7.17,9.74-9.22,5.85-1.53,5.85-1.53,4.38-7.68,6.82-9.73,7.31-6.65,15.59-8.19a27.72,27.72,0,0,1,15.59,1.54c1.46.51,9.74,5.12,12.66,9.21s4.87,9.73,5.36,10.24,7.31,2,9.74,5.12,5.94,6.65,6.34,13.31c.48,8.19-2.44,12.29-2.44,12.29a25.45,25.45,0,0,1-2.92,4.09,29,29,0,0,1-6.34,4.61,13.9,13.9,0,0,1-4.38,1.54c-.49,0,0-5.12,0-5.12s6.33-3.07,7.31-4.61,3.89-5.63,3.89-9.22,0-7.16-2.43-10.24-5.36-5.63-7.31-6.14S279,36,279,36s-1-4.61-2-6.15-5.84-8.7-8.28-10.23S260,15,254.62,15c0,0-7.8,0-11.21,2.56s-7.31,4.6-10.23,9.72-2.43,6.15-2.43,6.15a38.81,38.81,0,0,0-5.85.51,11.47,11.47,0,0,0-7.31,4.61c-2,2.56-3.89,5.12-4.38,8.7s-.49,8.7,1,11.26a33.15,33.15,0,0,0,4.39,5.64,28.15,28.15,0,0,0,3.89,2,3.68,3.68,0,0,0,1.47.51Z"/><path class="cls-2" d="M231.72,47.23c.49-1,0-1.54,3.41-1.54h38s1.46-.51,1.46,2.05V58.49s.49,1-2.92,1h-3.41S260,58.49,258,59a20.54,20.54,0,0,1-4.39.51h-20a1.94,1.94,0,0,1-1.95-2.05Z"/><path class="cls-2" d="M230.88,60.65a.77.77,0,0,0,.06-.9,2.11,2.11,0,0,0-.19-.23c-.49-.51-.49-1.54-.49-3.07V46.72a1.8,1.8,0,0,1,0-.23,2.62,2.62,0,0,1,1.93-2.33c1.95-.51,41.4-.51,41.4-.51s2.44,0,2.44,3.58V59.52s-1.46,1.53-2.44,1.53,1.95,1,2.44,3.08,0,23.54,0,23.54a14.53,14.53,0,0,1-9.26,4.61,40.85,40.85,0,0,1-10.71-.51H232.69s-2.43.51-2.43-4.1V78s0-2,1-2-1-1-1-2.05V63.61A4.86,4.86,0,0,1,230.88,60.65Z"/><path class="cls-2" d="M249.26,61.57s-1.95,1-1.95,2.56v23s1,2.56,1.95,3.07-16.08,0-16.08,0a1.94,1.94,0,0,1-2-2V79s-.48-2,1.46-2h14.13v-2H233.18a1.46,1.46,0,0,1-1.46-1.54V63.1s0-2.05,1.46-2.05h16.08Z"/><path class="cls-2" d="M248.28,87.16s4.39,4.61,14.13,4.1,12.18-3.59,12.18-3.59V82.56s-4.39,2.56-12.18,3.07A25.69,25.69,0,0,1,248.28,82Z"/><path class="cls-2" d="M248.28,74.88V80s5.85,4.6,13.16,4.09,12.66-2,13.64-4.61a6.26,6.26,0,0,0,0-4.6A30.55,30.55,0,0,1,262.41,78C255.59,78,248.28,74.88,248.28,74.88Z"/><path class="cls-2" d="M248.28,67.71v5.63a38.33,38.33,0,0,0,13.64,3.07c6.82,0,13.16-3.58,13.16-3.58V67.71s-4.39,3.07-13.16,3.07S248.28,67.71,248.28,67.71Z"/><path class="cls-2" d="M248.28,64.64s2.44,4.6,12.67,4.6,14.13-3.58,14.13-3.58.48-1.53-1.47-2.56S269.23,60,261.92,60s-11.2,2-11.2,2S247.8,63.61,248.28,64.64Z"/><g id="circulo1"><ellipse class="cls-2" cx="238.3" cy="52.61" rx="3.65" ry="3.84"/><ellipse class="cls-2" cx="238.3" cy="52.61" rx="2.19" ry="2.3"/></g><g id="circulo2"><ellipse class="cls-2" cx="238.3" cy="67.96" rx="2.19" ry="2.3"/><ellipse class="cls-2" cx="238.3" cy="67.96" rx="3.65" ry="3.84"/></g><g id="circulo3"><ellipse class="cls-2" cx="238.3" cy="83.32" rx="2.19" ry="2.3"/><ellipse class="cls-2" cx="238.3" cy="83.32" rx="3.65" ry="3.84"/></g><ellipse id="boton10" class="cls-4" cx="256.32" cy="51.58" rx="0.73" ry="0.77"/><ellipse id="boton9" class="cls-4" cx="257.78" cy="54.14" rx="0.73" ry="0.77"/><ellipse id="boton8" class="cls-4" cx="259.73" cy="51.58" rx="0.73" ry="0.77"/><ellipse id="boton7" class="cls-4" cx="261.19" cy="54.14" rx="0.73" ry="0.77"/><ellipse id="boton6" class="cls-4" cx="264.12" cy="54.14" rx="0.73" ry="0.77"/><ellipse id="boton5" class="cls-4" cx="267.04" cy="54.14" rx="0.73" ry="0.77"/><ellipse id="boton4" class="cls-4" cx="268.5" cy="51.58" rx="0.73" ry="0.77"/><ellipse id="boton3" class="cls-4" cx="265.58" cy="51.58" rx="0.73" ry="0.77"/><ellipse id="boton2" class="cls-4" cx="262.65" cy="51.58" rx="0.73" ry="0.77"/><ellipse id="boton1" class="cls-4" cx="269.96" cy="54.14" rx="0.73" ry="0.77"/><text class="cls-5" transform="translate(29.98 126.69) scale(0.95 1)">DS</text><text class="cls-5" transform="translate(134.81 125.53) scale(0.95 1)">AF</text><text class="cls-5" transform="translate(235.12 126.74) scale(0.95 1)">ITI</text><line class="cls-6" x1="323" y1="127.57" x2="323" y2="-1.69"/><text class="cls-7" transform="translate(340.02 33.6) scale(0.78 1)">Esc. Superior Nº 49</text><text class="cls-8" transform="translate(340.04 66.71) scale(0.95 1)">Cap. G<tspan class="cls-9" x="103.19" y="0">r</tspan><tspan x="119.01" y="0">al. J.J.</tspan></text><text class="cls-10" transform="translate(340.13 115.94) scale(0.95 1)">U<tspan class="cls-11" x="40.36" y="0">r</tspan><tspan class="cls-12" x="67.37" y="0">quiza</tspan></text></svg>