<?xml version="1.0" encoding="utf-8"?>
<!-- Generator: Adobe Illustrator 22.1.0, SVG Export Plug-In . SVG Version: 6.00 Build 0)  -->
<svg version="1.1" id="Capa_1" xmlns="http://www.w3.org/2000/svg" xmlns:xlink="http://www.w3.org/1999/xlink" x="0px" y="0px"
	 viewBox="0 0 550 131" style="enable-background:new 0 0 550 131;" xml:space="preserve">
<style type="text/css">
	@import url('https://fonts.googleapis.com/css?family=ZCOOL+XiaoWei');
	.st0{fill:none;stroke:#FFFFFF;stroke-width:2;stroke-miterlimit:10;}
	.st1{fill:none;stroke:#FFFFFF;stroke-miterlimit:10;}
	.st2{fill:#FFFFFF;}
	.st3{fill:#FFFFFF;stroke:#FFFFFF;stroke-miterlimit:10;}
	.st4{font-family:'ZCOOL XiaoWei';}
	.st5{font-size:29.9073px;}
	.st6{fill:none;}
	.st7{fill:#FFFFFF;stroke:#FFFFFF;stroke-width:3;stroke-miterlimit:10;}
	.st8{font-size:31.5284px;}
	.st9{letter-spacing:3.2;}
	.st10{font-size:53.5983px;}
	.st11{letter-spacing:5.3;}
</style>
<g>
	<rect x="162.2" y="6.6" class="st0" width="24.8" height="43.5"/>
	<line class="st0" x1="187" y1="17.2" x2="162.2" y2="17.2"/>
	<line class="st0" x1="164.6" y1="24.9" x2="180.9" y2="24.9"/>
	<line class="st0" x1="164.6" y1="40.3" x2="180.9" y2="40.3"/>
	<line class="st0" x1="164.6" y1="32.6" x2="180.9" y2="32.6"/>
	<line class="st0" x1="180.9" y1="11.9" x2="169.4" y2="11.9"/>
	<rect x="108.8" y="6.6" class="st0" width="24.8" height="59.9"/>
	<line class="st0" x1="111.3" y1="32.6" x2="127.5" y2="32.6"/>
	<line class="st0" x1="111.3" y1="24.9" x2="127.5" y2="24.9"/>
	<line class="st0" x1="108.8" y1="17.2" x2="133.5" y2="17.2"/>
	<line class="st0" x1="133.5" y1="40.3" x2="108.8" y2="40.3"/>
	<line class="st0" x1="111.3" y1="57.8" x2="127.5" y2="57.8"/>
	<line class="st0" x1="111.3" y1="50.1" x2="127.5" y2="50.1"/>
	<line class="st0" x1="114.3" y1="11.9" x2="128.1" y2="11.9"/>
	<rect x="140" y="71.4" class="st0" width="24.8" height="26"/>
	<line class="st0" x1="164.8" y1="81.5" x2="139.9" y2="81.5"/>
	<line class="st0" x1="145.1" y1="76.8" x2="159.5" y2="76.8"/>
	<line class="st0" x1="142.4" y1="89.8" x2="158.6" y2="89.8"/>
	<line class="st0" x1="192" y1="32.6" x2="187.1" y2="32.6"/>
	<line class="st0" x1="192" y1="78.6" x2="192" y2="32.6"/>
	<line class="st0" x1="192" y1="78.6" x2="165.3" y2="78.1"/>
	<line class="st0" x1="165" y1="78" x2="167.1" y2="81.2"/>
	<line class="st0" x1="165" y1="78.2" x2="167.7" y2="76"/>
	<line class="st0" x1="162.2" y1="13.8" x2="160.1" y2="10.6"/>
	<line class="st0" x1="162.2" y1="13.7" x2="159.5" y2="15.8"/>
	<line class="st0" x1="133.6" y1="32.5" x2="135.7" y2="35.8"/>
	<line class="st0" x1="133.5" y1="32.7" x2="136.3" y2="30.6"/>
	<line class="st0" x1="150.5" y1="71.3" x2="150.5" y2="32.6"/>
	<line class="st0" x1="134" y1="32.6" x2="150.5" y2="32.6"/>
	<line class="st0" x1="133.5" y1="13.1" x2="162.2" y2="13.3"/>
	<g>
		<path class="st1" d="M11.2,30.7v42.8c0,0,0.5,2.3,2.2,2.3s4.4,0,4.4,0v1.7h-6.6L1.8,88.9c-0.4,0.4-0.6,1-0.6,1.6v1.3
			c0,0.6,0.4,1.2,0.9,1.4c0.3,0.1,0.7,0.3,1.3,0.4c2.2,0.6,91.3,0,91.3,0s2.2-1.2,1.1-4c-1.1-2.9-10.4-12.1-10.4-12.1h-6v-1.7h4.4
			c0,0,2.2,0,2.2-1.7c0-2.3,0-43.3,0-43.3s0.5-2.9-3.8-2.9s-67.6,0-67.6,0S11.2,27.8,11.2,30.7z"/>
		<polygon class="st2" points="7.9,85 89.2,85 84.3,78.6 12.8,79.2 		"/>
		<polygon class="st2" points="43.1,86.1 40.9,90.8 56.3,90.8 54.6,86.1 		"/>
		<rect x="14.5" y="30.7" class="st0" width="68.7" height="41"/>
		<rect x="22.2" y="75.7" class="st1" width="52.8" height="1.7"/>
		<g>
			<polygon class="st2" points="37.6,52.6 42,56.7 39.8,60.1 33.2,53.8 33.2,51.5 39.8,45.1 42,48 			"/>
			<g>
				<polygon class="st2" points="48.6,42.2 43.1,64.2 47.5,64.2 53.5,42.2 				"/>
			</g>
			<polygon class="st2" points="56.3,48 61.2,52.6 56.8,56.7 59,59.6 65.6,53.8 65.6,51.5 58.4,45.1 			"/>
		</g>
	</g>
	<g>
		<path id="nube" class="st3" d="M224.4,73.8c-4.9-1-15.1-9.7-16.1-18.4s1.9-14.3,2.9-15.4c1-1,4.4-7.2,9.7-9.2
			c5.4-2,5.8-1.5,5.8-1.5s4.4-7.7,6.8-9.7c2.4-2,7.3-6.7,15.6-8.2c8.3-1.5,14.1,1,15.6,1.5c1.5,0.5,9.7,5.1,12.7,9.2
			c2.9,4.1,4.9,9.7,5.4,10.2c0.5,0.5,7.3,2,9.7,5.1c2.4,3.1,5.9,6.6,6.3,13.3c0.5,8.2-2.4,12.3-2.4,12.3s-1.5,2.6-2.9,4.1
			c-1.5,1.5-4.4,3.6-6.3,4.6c-1.9,1-3.9,1.5-4.4,1.5c-0.5,0,0-5.1,0-5.1s6.3-3.1,7.3-4.6c1-1.5,3.9-5.6,3.9-9.2
			c0-3.6,0-7.2-2.4-10.2c-2.4-3.1-5.4-5.6-7.3-6.1c-1.9-0.5-5.4-1-5.4-1s-1-4.6-1.9-6.1s-5.8-8.7-8.3-10.2C266.3,19,260,16,254.6,16
			c0,0-7.8,0-11.2,2.6c-3.4,2.6-7.3,4.6-10.2,9.7c-2.9,5.1-2.4,6.1-2.4,6.1s-2.9,0-5.8,0.5c-2.9,0.5-5.4,2-7.3,4.6
			c-1.9,2.6-3.9,5.1-4.4,8.7s-0.5,8.7,1,11.3c1.5,2.6,3.9,5.1,4.4,5.6c0.5,0.5,2.9,1.5,3.9,2s1.5,0.5,1.5,0.5L224.4,73.8z"/>
		<path class="st1" d="M231.7,48.2c0.5-1,0-1.5,3.4-1.5c3.4,0,38,0,38,0s1.5-0.5,1.5,2s0,10.8,0,10.8s0.5,1-2.9,1s-3.4,0-3.4,0
			s-8.3-1-10.2-0.5s-4.4,0.5-4.4,0.5h-20c0,0-1.9,0-1.9-2S231.7,48.2,231.7,48.2z"/>
		<path class="st1" d="M230.9,61.6c0.2-0.3,0.2-0.6,0.1-0.9c-0.1-0.1-0.1-0.2-0.2-0.2c-0.5-0.5-0.5-1.5-0.5-3.1s0-9.7,0-9.7
			s0-0.1,0-0.2c0.1-0.5,0.4-1.9,1.9-2.3c1.9-0.5,41.4-0.5,41.4-0.5s2.4,0,2.4,3.6s0,12.3,0,12.3s-1.5,1.5-2.4,1.5s1.9,1,2.4,3.1
			c0.5,2,0,23.5,0,23.5s-3.4,4.1-9.3,4.6c-5.8,0.5-10.7-0.5-10.7-0.5h-23.4c0,0-2.4,0.5-2.4-4.1c0-4.6,0-9.7,0-9.7s0-2,1-2s-1-1-1-2
			c0-1,0-10.2,0-10.2S230,62.8,230.9,61.6z"/>
		<path class="st1" d="M249.3,62.6c0,0-1.9,1-1.9,2.6c0,0.2,0,6.8,0,12.9c0,5.3,0,10.2,0,10.2s1,2.6,1.9,3.1c1,0.5-16.1,0-16.1,0
			s-1.9,0-1.9-2s0-2,0-2V80c0,0-0.5-2,1.5-2h14.1v-2h-13.6c0,0-1.5,0-1.5-1.5c0-1.5,0-10.2,0-10.2s0-2,1.5-2c1.5,0,16.1,0,16.1,0
			V62.6z"/>
		<path class="st1" d="M230.4,59.8"/>
		<path class="st1" d="M248.3,88.2c0,0,4.4,4.6,14.1,4.1c9.7-0.5,12.2-3.6,12.2-3.6v-5.1c0,0-4.4,2.6-12.2,3.1
			c-7.8,0.5-14.1-3.6-14.1-3.6V88.2z"/>
		<path class="st1" d="M248.3,75.9V81c0,0,5.8,4.6,13.2,4.1c7.3-0.5,12.7-2,13.6-4.6s0-4.6,0-4.6s-5.8,3.1-12.7,3.1
			C255.6,78.9,248.3,75.9,248.3,75.9z"/>
		<path class="st1" d="M248.3,68.7v5.6c0,0,6.8,3.1,13.6,3.1c6.8,0,13.2-3.6,13.2-3.6v-5.1c0,0-4.4,3.1-13.2,3.1
			C253.2,71.8,248.3,68.7,248.3,68.7z"/>
		<path class="st1" d="M248.3,65.6c0,0,2.4,4.6,12.7,4.6c10.2,0,14.1-3.6,14.1-3.6s0.5-1.5-1.5-2.6c-1.9-1-4.4-3.1-11.7-3.1
			c-7.3,0-11.2,2-11.2,2S247.8,64.6,248.3,65.6z"/>
		<g id="circulo1">
			<ellipse class="st1" cx="238.3" cy="53.6" rx="3.7" ry="3.8"/>
			<ellipse class="st1" cx="238.3" cy="53.6" rx="2.2" ry="2.3"/>
		</g>
		<g id="circulo2">
			<ellipse class="st1" cx="238.3" cy="69" rx="2.2" ry="2.3"/>
			<ellipse class="st1" cx="238.3" cy="69" rx="3.7" ry="3.8"/>
		</g>
		<g id="circulo3">
			<ellipse class="st1" cx="238.3" cy="84.3" rx="2.2" ry="2.3"/>
			<ellipse class="st1" cx="238.3" cy="84.3" rx="3.7" ry="3.8"/>
		</g>
		<ellipse id="boton10" class="st3" cx="256.3" cy="52.6" rx="0.7" ry="0.8"/>
		<ellipse id="boton9" class="st3" cx="257.8" cy="55.1" rx="0.7" ry="0.8"/>
		<ellipse id="boton8" class="st3" cx="259.7" cy="52.6" rx="0.7" ry="0.8"/>
		<ellipse id="boton7" class="st3" cx="261.2" cy="55.1" rx="0.7" ry="0.8"/>
		<ellipse id="boton6" class="st3" cx="264.1" cy="55.1" rx="0.7" ry="0.8"/>
		<ellipse id="boton5" class="st3" cx="267" cy="55.1" rx="0.7" ry="0.8"/>
		<ellipse id="boton4" class="st3" cx="268.5" cy="52.6" rx="0.7" ry="0.8"/>
		<ellipse id="boton3" class="st3" cx="265.6" cy="52.6" rx="0.7" ry="0.8"/>
		<ellipse id="boton2" class="st3" cx="262.7" cy="52.6" rx="0.7" ry="0.8"/>
		<ellipse id="boton1" class="st3" cx="270" cy="55.1" rx="0.7" ry="0.8"/>
	</g>
	<text transform="matrix(0.9515 0 0 1 29.9814 127.6943)" class="st2 st4 st5">DS</text>
	<rect x="134.8" y="105.6" class="st6" width="37" height="22.2"/>
	<text transform="matrix(0.9515 0 0 1 134.8076 126.5342)" class="st2 st4 st5">AF</text>
	<text transform="matrix(0.9515 0 0 1 235.123 127.7354)" class="st2 st4 st5">ITI</text>
	<line class="st6" x1="314" y1="128.6" x2="314" y2="-7"/>
	<line class="st7" x1="323" y1="128.6" x2="323" y2="-0.7"/>
	<text transform="matrix(0.7779 0 0 1 340.0166 34.5972)" class="st2 st4 st8">Esc. Superior Nº 49</text>
	<text transform="matrix(0.9515 0 0 1 340.042 67.7061)" class="st2 st4 st8 st9">Cap. Gral. J.J.</text>
	<text transform="matrix(0.9515 0 0 1 340.126 116.9404)" class="st2 st4 st10 st11">Urquiza</text>
</g>
</svg>
