<svg id="Capa_1" data-name="Capa 1" xmlns="http://www.w3.org/2000/svg" viewBox="0 0 543.96 141.02"><defs><style>.cls-1,.cls-13,.cls-2,.cls-4,.cls-6,.cls-7{fill:none;}.cls-1{stroke:#069;}.cls-1,.cls-14,.cls-2,.cls-4,.cls-5,.cls-6,.cls-7,.cls-8{stroke-miterlimit:10;}.cls-1,.cls-4{stroke-width:2px;}.cls-2,.cls-4{stroke:#063;}.cls-3,.cls-9{fill:#006837;}.cls-11,.cls-5{fill:#930;}.cls-5,.cls-6,.cls-8{stroke:#930;}.cls-7{stroke:#fff;}.cls-8{fill:#4d4d4d;}.cls-10,.cls-11,.cls-9{font-size:29.91px;}.cls-10,.cls-11,.cls-15,.cls-17,.cls-18,.cls-9{font-family:ZCOOLXiaoWei-Regular, ZCOOL XiaoWei;}.cls-10{fill:#069;}.cls-12{letter-spacing:-0.01em;}.cls-14,.cls-15,.cls-17,.cls-18{fill:#333;}.cls-14{stroke:#333;stroke-width:3px;}.cls-15{font-size:31.53px;}.cls-16{font-family:CambriaMath, Cambria Math;}.cls-17{font-size:35.06px;}.cls-18{font-size:59.18px;}.cls-19{letter-spacing:-0.01em;}</style></defs><title>Nuevo Logo Urq-modificado2019-color</title><rect class="cls-1" x="161.46" y="13.56" width="24.76" height="43.55"/><line class="cls-1" x1="186.21" y1="24.2" x2="161.46" y2="24.2"/><line class="cls-1" x1="163.85" y1="31.91" x2="180.08" y2="31.91"/><line class="cls-1" x1="163.85" y1="47.31" x2="180.08" y2="47.31"/><line class="cls-1" x1="163.85" y1="39.61" x2="180.08" y2="39.61"/><line class="cls-1" x1="180.08" y1="18.88" x2="168.63" y2="18.88"/><rect class="cls-1" x="107.99" y="13.56" width="24.76" height="59.93"/><line class="cls-1" x1="110.49" y1="39.61" x2="126.71" y2="39.61"/><line class="cls-1" x1="110.49" y1="31.91" x2="126.71" y2="31.91"/><line class="cls-1" x1="107.99" y1="24.2" x2="132.75" y2="24.2"/><line class="cls-1" x1="132.75" y1="47.31" x2="107.99" y2="47.31"/><line class="cls-1" x1="110.49" y1="64.81" x2="126.71" y2="64.81"/><line class="cls-1" x1="110.49" y1="57.11" x2="126.71" y2="57.11"/><line class="cls-1" x1="113.5" y1="18.88" x2="127.34" y2="18.88"/><rect class="cls-1" x="139.22" y="78.43" width="24.76" height="26.05"/><line class="cls-1" x1="164.03" y1="88.51" x2="139.12" y2="88.51"/><line class="cls-1" x1="144.32" y1="83.75" x2="158.67" y2="83.75"/><line class="cls-1" x1="141.61" y1="96.77" x2="157.84" y2="96.77"/><line class="cls-1" x1="191.22" y1="39.61" x2="186.35" y2="39.61"/><line class="cls-1" x1="191.19" y1="85.63" x2="191.22" y2="39.61"/><line class="cls-1" x1="191.19" y1="85.63" x2="164.52" y2="85.07"/><line class="cls-1" x1="164.25" y1="85.01" x2="166.35" y2="88.24"/><line class="cls-1" x1="164.19" y1="85.17" x2="166.96" y2="83.02"/><line class="cls-1" x1="161.41" y1="20.81" x2="159.3" y2="17.58"/><line class="cls-1" x1="161.46" y1="20.65" x2="158.69" y2="22.8"/><line class="cls-1" x1="132.8" y1="39.54" x2="134.9" y2="42.78"/><line class="cls-1" x1="132.75" y1="39.71" x2="135.52" y2="37.56"/><line class="cls-1" x1="149.73" y1="78.35" x2="149.73" y2="39.61"/><line class="cls-1" x1="133.27" y1="39.61" x2="149.73" y2="39.61"/><line class="cls-1" x1="132.75" y1="20.1" x2="161.46" y2="20.28"/><path class="cls-2" d="M12.17,32.67V75.43s.55,2.31,2.2,2.31h4.4v1.73h-6.6L2.84,90.92a2.5,2.5,0,0,0-.56,1.58v1.28a1.56,1.56,0,0,0,.9,1.43,8.74,8.74,0,0,0,1.3.44c2.2.57,91.25,0,91.25,0s2.2-1.16,1.1-4.05S86.39,79.47,86.39,79.47h-6V77.74h4.4s2.2,0,2.2-1.74V32.67s.55-2.88-3.85-2.88H15.47S12.17,29.79,12.17,32.67Z" transform="translate(-1.78 5)"/><polygon class="cls-3" points="7.1 91.98 88.45 91.98 83.51 85.63 12.04 86.2 7.1 91.98"/><polygon class="cls-3" points="42.28 93.14 40.08 97.76 55.47 97.76 53.82 93.14 42.28 93.14"/><rect class="cls-4" x="13.69" y="37.67" width="68.71" height="41.02"/><rect class="cls-2" x="21.39" y="82.74" width="52.77" height="1.73"/><polygon class="cls-3" points="37.7 59.63 41.18 63.67 39.44 67.14 34.22 60.78 34.22 58.47 39.44 52.12 41.18 55.01 37.7 59.63"/><polygon class="cls-3" points="47.77 49.23 42.28 71.18 46.68 71.18 52.72 49.23 47.77 49.23"/><polygon class="cls-3" points="55.47 55.01 60.42 59.63 56.02 63.67 58.22 66.56 64.82 60.78 64.82 58.47 57.67 52.12 55.47 55.01"/><path id="nube" class="cls-5" d="M225.41,75.83c-4.87-1-15.1-9.73-16.07-18.43s1.95-14.34,2.92-15.36,4.38-7.17,9.74-9.22,5.85-1.53,5.85-1.53,4.38-7.68,6.82-9.73,7.31-6.65,15.59-8.19a27.72,27.72,0,0,1,15.59,1.54c1.46.51,9.74,5.12,12.66,9.21s4.87,9.73,5.36,10.24,7.31,2,9.74,5.12,5.94,6.65,6.34,13.31c.48,8.19-2.44,12.29-2.44,12.29a25.45,25.45,0,0,1-2.92,4.09,29,29,0,0,1-6.34,4.61,13.9,13.9,0,0,1-4.38,1.54c-.49,0,0-5.12,0-5.12s6.33-3.07,7.31-4.61,3.89-5.63,3.89-9.22,0-7.16-2.43-10.24-5.36-5.63-7.31-6.14S280,39,280,39s-1-4.61-2-6.15-5.84-8.7-8.28-10.23S261,18,255.62,18c0,0-7.8,0-11.21,2.56s-7.31,4.6-10.23,9.72-2.43,6.15-2.43,6.15a38.81,38.81,0,0,0-5.85.51,11.47,11.47,0,0,0-7.31,4.61c-2,2.56-3.89,5.12-4.38,8.7s-.49,8.7,1,11.26a33.15,33.15,0,0,0,4.39,5.64,28.15,28.15,0,0,0,3.89,2,3.68,3.68,0,0,0,1.47.51Z" transform="translate(-1.78 5)"/><path class="cls-6" d="M232.72,50.23c.49-1,0-1.54,3.41-1.54h38s1.46-.51,1.46,2.05V61.49s.49,1-2.92,1h-3.41S261,61.49,259,62a20.54,20.54,0,0,1-4.39.51h-20a1.94,1.94,0,0,1-1.95-2.05Z" transform="translate(-1.78 5)"/><path class="cls-6" d="M231.88,63.65a.77.77,0,0,0,.06-.9,2.11,2.11,0,0,0-.19-.23c-.49-.51-.49-1.54-.49-3.07V49.72a1.8,1.8,0,0,1,0-.23,2.62,2.62,0,0,1,1.93-2.33c1.95-.51,41.4-.51,41.4-.51s2.44,0,2.44,3.58V62.52s-1.46,1.53-2.44,1.53,1.95,1,2.44,3.08,0,23.54,0,23.54a14.53,14.53,0,0,1-9.26,4.61,40.85,40.85,0,0,1-10.71-.51H233.69s-2.43.51-2.43-4.1V81s0-2,1-2-1-1-1-2.05V66.61A4.86,4.86,0,0,1,231.88,63.65Z" transform="translate(-1.78 5)"/><path class="cls-6" d="M250.26,64.51s-1.95,1-1.95,2.57V90.16s1,2.56,1.95,3.07-16.08,0-16.08,0a1.94,1.94,0,0,1-2-2V82s-.48-2,1.46-2h14.13V77.85H234.18a1.46,1.46,0,0,1-1.46-1.54V66.05s0-2,1.46-2h16.08Z" transform="translate(-1.78 5)"/><path class="cls-7" d="M231.35,61.83" transform="translate(-1.78 5)"/><path class="cls-6" d="M249.28,90.16s4.39,4.61,14.13,4.1,12.18-3.59,12.18-3.59V85.56s-4.39,2.56-12.18,3.07A25.69,25.69,0,0,1,249.28,85Z" transform="translate(-1.78 5)"/><path class="cls-6" d="M249.28,77.88V83s5.85,4.6,13.16,4.09,12.66-2,13.64-4.61a6.26,6.26,0,0,0,0-4.6A30.55,30.55,0,0,1,263.41,81C256.59,81,249.28,77.88,249.28,77.88Z" transform="translate(-1.78 5)"/><path class="cls-6" d="M249.28,70.71v5.63a38.33,38.33,0,0,0,13.64,3.07c6.82,0,13.16-3.58,13.16-3.58V70.71s-4.39,3.07-13.16,3.07S249.28,70.71,249.28,70.71Z" transform="translate(-1.78 5)"/><path class="cls-6" d="M249.28,67.64s2.44,4.6,12.67,4.6,14.13-3.58,14.13-3.58.48-1.53-1.47-2.56S270.23,63,262.92,63s-11.2,2-11.2,2S248.8,66.61,249.28,67.64Z" transform="translate(-1.78 5)"/><g id="circulo2"><ellipse class="cls-6" cx="237.54" cy="76.06" rx="2.21" ry="2.36"/><ellipse class="cls-6" cx="237.54" cy="76.06" rx="3.68" ry="3.94"/></g><g id="circulo3"><ellipse class="cls-6" cx="237.52" cy="91.32" rx="2.19" ry="2.3"/><ellipse class="cls-6" cx="237.52" cy="91.32" rx="3.65" ry="3.84"/></g><ellipse id="boton10" class="cls-8" cx="255.54" cy="59.58" rx="0.73" ry="0.77"/><ellipse id="boton9" class="cls-8" cx="257" cy="62.14" rx="0.73" ry="0.77"/><ellipse id="boton8" class="cls-8" cx="258.95" cy="59.58" rx="0.73" ry="0.77"/><ellipse id="boton7" class="cls-8" cx="260.41" cy="62.14" rx="0.73" ry="0.77"/><ellipse id="boton6" class="cls-8" cx="263.34" cy="62.14" rx="0.73" ry="0.77"/><ellipse id="boton5" class="cls-8" cx="266.26" cy="62.14" rx="0.73" ry="0.77"/><ellipse id="boton4" class="cls-8" cx="267.72" cy="59.58" rx="0.73" ry="0.77"/><ellipse id="boton3" class="cls-8" cx="264.8" cy="59.58" rx="0.73" ry="0.77"/><ellipse id="boton2" class="cls-8" cx="261.87" cy="59.58" rx="0.73" ry="0.77"/><ellipse id="boton1" class="cls-8" cx="269.18" cy="62.14" rx="0.73" ry="0.77"/><g id="circulo2-2" data-name="circulo2"><ellipse class="cls-6" cx="237.54" cy="61.06" rx="2.21" ry="2.36"/><ellipse class="cls-6" cx="237.54" cy="61.06" rx="3.68" ry="3.94"/></g><text class="cls-9" transform="translate(29.2 134.69) scale(0.95 1)">DS</text><text class="cls-10" transform="translate(134.03 133.38) scale(0.95 1)">AF</text><text class="cls-11" transform="translate(234.34 134.74) scale(0.95 1)"><tspan class="cls-12">I</tspan><tspan x="8.34" y="0">TI</tspan></text><line class="cls-13" x1="313.22" y1="135.57" x2="313.22"/><line class="cls-14" x1="322.22" y1="135.57" x2="322.22" y2="6.31"/><text class="cls-15" transform="translate(339.24 37.6) scale(0.78 1)">Esc. Superior N<tspan class="cls-16" x="207.71" y="0">ยบ</tspan><tspan x="221.19" y="0" xml:space="preserve"> 49</tspan></text><text class="cls-17" transform="translate(339.26 74.64) scale(1.07 1)">Cap. Gral. J.J.</text><text class="cls-18" transform="translate(339.35 126.57) scale(1.04 1)">U<tspan class="cls-19" x="40.66" y="0">r</tspan><tspan x="63.62" y="0">quiza</tspan></text></svg>