<?xml version="1.0" encoding="utf-8"?>
<!-- Generator: Adobe Illustrator 22.1.0, SVG Export Plug-In . SVG Version: 6.00 Build 0)  -->
<svg version="1.1" id="Capa_1" xmlns="http://www.w3.org/2000/svg" xmlns:xlink="http://www.w3.org/1999/xlink" x="0px" y="0px"
	 viewBox="0 0 550 131" style="enable-background:new 0 0 550 131;" xml:space="preserve">
<style type="text/css">
	@import url('https://fonts.googleapis.com/css?family=ZCOOL+XiaoWei');
	.st0{fill:none;stroke:#FFFFFF;stroke-width:2;stroke-miterlimit:10;}
	.st1{fill:none;stroke:#FFFFFF;stroke-miterlimit:10;}
	.st2{fill:#FFFFFF;}
	.st3{fill:#FFFFFF;stroke:#FFFFFF;stroke-miterlimit:10;}
	.st4{font-family:'ZCOOL XiaoWei';}
	.st5{font-size:29.9073px;}
	.st6{fill:none;}
	.st7{fill:#FFFFFF;stroke:#FFFFFF;stroke-width:3;stroke-miterlimit:10;}
	.st8{font-size:31.5284px;}
	.st9{font-family:'CambriaMath';}
	.st10{font-size:35.0599px;}
	.st11{font-size:59.1788px;}
</style>
<g>
	<rect x="163.2" y="7.6" class="st0" width="24.8" height="43.5"/>
	<line class="st0" x1="188" y1="18.2" x2="163.2" y2="18.2"/>
	<line class="st0" x1="165.6" y1="25.9" x2="181.9" y2="25.9"/>
	<line class="st0" x1="165.6" y1="41.3" x2="181.9" y2="41.3"/>
	<line class="st0" x1="165.6" y1="33.6" x2="181.9" y2="33.6"/>
	<line class="st0" x1="181.9" y1="12.9" x2="170.4" y2="12.9"/>
	<rect x="109.8" y="7.6" class="st0" width="24.8" height="59.9"/>
	<line class="st0" x1="112.3" y1="33.6" x2="128.5" y2="33.6"/>
	<line class="st0" x1="112.3" y1="25.9" x2="128.5" y2="25.9"/>
	<line class="st0" x1="109.8" y1="18.2" x2="134.5" y2="18.2"/>
	<line class="st0" x1="134.5" y1="41.3" x2="109.8" y2="41.3"/>
	<line class="st0" x1="112.3" y1="58.8" x2="128.5" y2="58.8"/>
	<line class="st0" x1="112.3" y1="51.1" x2="128.5" y2="51.1"/>
	<line class="st0" x1="115.3" y1="12.9" x2="129.1" y2="12.9"/>
	<rect x="141" y="72.4" class="st0" width="24.8" height="26"/>
	<line class="st0" x1="165.8" y1="82.5" x2="140.9" y2="82.5"/>
	<line class="st0" x1="146.1" y1="77.8" x2="160.5" y2="77.8"/>
	<line class="st0" x1="143.4" y1="90.8" x2="159.6" y2="90.8"/>
	<line class="st0" x1="193" y1="33.6" x2="188.1" y2="33.6"/>
	<line class="st0" x1="193" y1="79.6" x2="193" y2="33.6"/>
	<line class="st0" x1="193" y1="79.6" x2="166.3" y2="79.1"/>
	<line class="st0" x1="166" y1="79" x2="168.1" y2="82.2"/>
	<line class="st0" x1="166" y1="79.2" x2="168.7" y2="77"/>
	<line class="st0" x1="163.2" y1="14.8" x2="161.1" y2="11.6"/>
	<line class="st0" x1="163.2" y1="14.7" x2="160.5" y2="16.8"/>
	<line class="st0" x1="134.6" y1="33.5" x2="136.7" y2="36.8"/>
	<line class="st0" x1="134.5" y1="33.7" x2="137.3" y2="31.6"/>
	<line class="st0" x1="151.5" y1="72.3" x2="151.5" y2="33.6"/>
	<line class="st0" x1="135" y1="33.6" x2="151.5" y2="33.6"/>
	<line class="st0" x1="134.5" y1="14.1" x2="163.2" y2="14.3"/>
	<g>
		<path class="st1" d="M12.2,31.7v42.8c0,0,0.5,2.3,2.2,2.3s4.4,0,4.4,0v1.7h-6.6L2.8,89.9c-0.4,0.4-0.6,1-0.6,1.6v1.3
			c0,0.6,0.4,1.2,0.9,1.4c0.3,0.1,0.7,0.3,1.3,0.4c2.2,0.6,91.3,0,91.3,0s2.2-1.2,1.1-4c-1.1-2.9-10.4-12.1-10.4-12.1h-6v-1.7h4.4
			c0,0,2.2,0,2.2-1.7c0-2.3,0-43.3,0-43.3s0.5-2.9-3.8-2.9s-67.6,0-67.6,0S12.2,28.8,12.2,31.7z"/>
		<polygon class="st2" points="8.9,86 90.2,86 85.3,79.6 13.8,80.2 		"/>
		<polygon class="st2" points="44.1,87.1 41.9,91.8 57.3,91.8 55.6,87.1 		"/>
		<rect x="15.5" y="31.7" class="st0" width="68.7" height="41"/>
		<rect x="23.2" y="76.7" class="st1" width="52.8" height="1.7"/>
		<g>
			<polygon class="st2" points="38.6,53.6 43,57.7 40.8,61.1 34.2,54.8 34.2,52.5 40.8,46.1 43,49 			"/>
			<g>
				<polygon class="st2" points="49.6,43.2 44.1,65.2 48.5,65.2 54.5,43.2 				"/>
			</g>
			<polygon class="st2" points="57.3,49 62.2,53.6 57.8,57.7 60,60.6 66.6,54.8 66.6,52.5 59.4,46.1 			"/>
		</g>
	</g>
	<g>
		<path id="nube" class="st3" d="M225.4,74.8c-4.9-1-15.1-9.7-16.1-18.4s1.9-14.3,2.9-15.4c1-1,4.4-7.2,9.7-9.2
			c5.4-2,5.8-1.5,5.8-1.5s4.4-7.7,6.8-9.7c2.4-2,7.3-6.7,15.6-8.2c8.3-1.5,14.1,1,15.6,1.5c1.5,0.5,9.7,5.1,12.7,9.2
			c2.9,4.1,4.9,9.7,5.4,10.2c0.5,0.5,7.3,2,9.7,5.1c2.4,3.1,5.9,6.6,6.3,13.3c0.5,8.2-2.4,12.3-2.4,12.3s-1.5,2.6-2.9,4.1
			c-1.5,1.5-4.4,3.6-6.3,4.6c-1.9,1-3.9,1.5-4.4,1.5c-0.5,0,0-5.1,0-5.1s6.3-3.1,7.3-4.6c1-1.5,3.9-5.6,3.9-9.2
			c0-3.6,0-7.2-2.4-10.2c-2.4-3.1-5.4-5.6-7.3-6.1c-1.9-0.5-5.4-1-5.4-1s-1-4.6-1.9-6.1s-5.8-8.7-8.3-10.2C267.3,20,261,17,255.6,17
			c0,0-7.8,0-11.2,2.6c-3.4,2.6-7.3,4.6-10.2,9.7c-2.9,5.1-2.4,6.1-2.4,6.1s-2.9,0-5.8,0.5c-2.9,0.5-5.4,2-7.3,4.6
			c-1.9,2.6-3.9,5.1-4.4,8.7s-0.5,8.7,1,11.3c1.5,2.6,3.9,5.1,4.4,5.6c0.5,0.5,2.9,1.5,3.9,2s1.5,0.5,1.5,0.5L225.4,74.8z"/>
		<path class="st1" d="M232.7,49.2c0.5-1,0-1.5,3.4-1.5c3.4,0,38,0,38,0s1.5-0.5,1.5,2s0,10.8,0,10.8s0.5,1-2.9,1s-3.4,0-3.4,0
			s-8.3-1-10.2-0.5s-4.4,0.5-4.4,0.5h-20c0,0-1.9,0-1.9-2S232.7,49.2,232.7,49.2z"/>
		<path class="st1" d="M231.9,62.6c0.2-0.3,0.2-0.6,0.1-0.9c-0.1-0.1-0.1-0.2-0.2-0.2c-0.5-0.5-0.5-1.5-0.5-3.1s0-9.7,0-9.7
			s0-0.1,0-0.2c0.1-0.5,0.4-1.9,1.9-2.3c1.9-0.5,41.4-0.5,41.4-0.5s2.4,0,2.4,3.6s0,12.3,0,12.3s-1.5,1.5-2.4,1.5s1.9,1,2.4,3.1
			c0.5,2,0,23.5,0,23.5s-3.4,4.1-9.3,4.6c-5.8,0.5-10.7-0.5-10.7-0.5h-23.4c0,0-2.4,0.5-2.4-4.1c0-4.6,0-9.7,0-9.7s0-2,1-2s-1-1-1-2
			c0-1,0-10.2,0-10.2S231,63.8,231.9,62.6z"/>
		<path class="st1" d="M250.3,63.6c0,0-1.9,1-1.9,2.6c0,0.2,0,6.8,0,12.9c0,5.3,0,10.2,0,10.2s1,2.6,1.9,3.1c1,0.5-16.1,0-16.1,0
			s-1.9,0-1.9-2s0-2,0-2V81c0,0-0.5-2,1.5-2h14.1v-2h-13.6c0,0-1.5,0-1.5-1.5c0-1.5,0-10.2,0-10.2s0-2,1.5-2c1.5,0,16.1,0,16.1,0
			V63.6z"/>
		<path class="st1" d="M231.4,60.8"/>
		<path class="st1" d="M249.3,89.2c0,0,4.4,4.6,14.1,4.1c9.7-0.5,12.2-3.6,12.2-3.6v-5.1c0,0-4.4,2.6-12.2,3.1
			c-7.8,0.5-14.1-3.6-14.1-3.6V89.2z"/>
		<path class="st1" d="M249.3,76.9V82c0,0,5.8,4.6,13.2,4.1c7.3-0.5,12.7-2,13.6-4.6s0-4.6,0-4.6s-5.8,3.1-12.7,3.1
			S249.3,76.9,249.3,76.9z"/>
		<path class="st1" d="M249.3,69.7v5.6c0,0,6.8,3.1,13.6,3.1c6.8,0,13.2-3.6,13.2-3.6v-5.1c0,0-4.4,3.1-13.2,3.1
			C254.2,72.8,249.3,69.7,249.3,69.7z"/>
		<path class="st1" d="M249.3,66.6c0,0,2.4,4.6,12.7,4.6c10.2,0,14.1-3.6,14.1-3.6s0.5-1.5-1.5-2.6c-1.9-1-4.4-3.1-11.7-3.1
			c-7.3,0-11.2,2-11.2,2S248.8,65.6,249.3,66.6z"/>
		<g id="circulo1">
			<ellipse class="st1" cx="239.3" cy="54.6" rx="3.7" ry="3.8"/>
			<ellipse class="st1" cx="239.3" cy="54.6" rx="2.2" ry="2.3"/>
		</g>
		<g id="circulo2">
			<ellipse class="st1" cx="239.3" cy="70" rx="2.2" ry="2.3"/>
			<ellipse class="st1" cx="239.3" cy="70" rx="3.7" ry="3.8"/>
		</g>
		<g id="circulo3">
			<ellipse class="st1" cx="239.3" cy="85.3" rx="2.2" ry="2.3"/>
			<ellipse class="st1" cx="239.3" cy="85.3" rx="3.7" ry="3.8"/>
		</g>
		<ellipse id="boton10" class="st3" cx="257.3" cy="53.6" rx="0.7" ry="0.8"/>
		<ellipse id="boton9" class="st3" cx="258.8" cy="56.1" rx="0.7" ry="0.8"/>
		<ellipse id="boton8" class="st3" cx="260.7" cy="53.6" rx="0.7" ry="0.8"/>
		<ellipse id="boton7" class="st3" cx="262.2" cy="56.1" rx="0.7" ry="0.8"/>
		<ellipse id="boton6" class="st3" cx="265.1" cy="56.1" rx="0.7" ry="0.8"/>
		<ellipse id="boton5" class="st3" cx="268" cy="56.1" rx="0.7" ry="0.8"/>
		<ellipse id="boton4" class="st3" cx="269.5" cy="53.6" rx="0.7" ry="0.8"/>
		<ellipse id="boton3" class="st3" cx="266.6" cy="53.6" rx="0.7" ry="0.8"/>
		<ellipse id="boton2" class="st3" cx="263.7" cy="53.6" rx="0.7" ry="0.8"/>
		<ellipse id="boton1" class="st3" cx="271" cy="56.1" rx="0.7" ry="0.8"/>
	</g>
	<text transform="matrix(0.9515 0 0 1 30.9814 128.6943)" class="st2 st4 st5">DS</text>
	<rect x="135.8" y="107.6" class="st6" width="37" height="22.2"/>
	<text transform="matrix(0.9515 0 0 1 135.8076 127.375)" class="st2 st4 st5">AF</text>
	<text transform="matrix(0.9515 0 0 1 236.123 128.7354)" class="st2 st4 st5">ITI</text>
	<line class="st6" x1="315" y1="129.6" x2="315" y2="-6"/>
	<line class="st7" x1="324" y1="129.6" x2="324" y2="0.3"/>
	<text transform="matrix(0.7779 0 0 1 341.0166 31.5972)"><tspan x="0" y="0" class="st2 st4 st8">Esc. Superior N</tspan><tspan x="207.7" y="0" class="st2 st9 st8">º</tspan><tspan x="221.2" y="0" class="st2 st4 st8"> 49</tspan></text>
	<text transform="matrix(1.0669 0 0 1 341.042 68.6377)" class="st2 st4 st10">Cap. Gral. J.J.</text>
	<text transform="matrix(1.0355 0 0 1 341.126 120.5723)" class="st2 st4 st11">Urquiza</text>
</g>
</svg>
